<svg width="82" height="52" viewBox="0 0 82 52" fill="none" xmlns="http://www.w3.org/2000/svg">
<rect width="82" height="52" rx="2" fill="white"/>
<path d="M37.5311 35.2524H34.485V35.5689C35.4371 35.5689 35.5953 35.7667 35.5953 36.9653V39.1233C35.5953 40.3298 35.4371 40.5514 34.485 40.5514C33.7551 40.4564 33.2475 40.0437 32.5809 39.3138L31.7877 38.4567C32.8347 38.2589 33.4064 37.5996 33.4064 36.8704C33.4064 35.95 32.6132 35.2201 31.1218 35.2201H28.139V35.5366C29.0911 35.5366 29.2493 35.7344 29.2493 36.933V39.091C29.2493 40.2975 29.0911 40.5191 28.139 40.5191V40.8355H31.5029V40.5191C30.5508 40.5191 30.3926 40.2969 30.3926 39.091V38.4884H30.6781L32.5506 40.8355H37.5007C39.9442 40.8355 40.9912 39.5347 40.9912 38.0117C41.0228 36.5203 39.9758 35.2511 37.5324 35.2511L37.5311 35.2524ZM30.4236 38.013V35.7667H31.1225C31.884 35.7667 32.2328 36.306 32.2328 36.9093C32.2328 37.5126 31.8833 38.0196 31.1225 38.0196L30.4236 38.013ZM37.595 40.3602H37.4678C36.8651 40.3602 36.7689 40.2019 36.7689 39.4398V35.7607H37.593C39.3699 35.7607 39.687 37.0616 39.687 38.0453C39.687 39.0923 39.3376 40.3615 37.593 40.3615L37.595 40.3602ZM18.6824 38.6545L19.856 35.1957C20.2054 34.1804 20.0538 33.8949 18.9672 33.8949V33.5454H22.1715V33.8949C21.0929 33.8949 20.8397 34.1487 20.4263 35.3863L18.4899 41.1863H18.236L16.4908 35.8873L14.7449 41.1863H14.5228L12.6503 35.3797C12.2375 34.1421 11.991 33.8883 11 33.8883V33.5388H14.7449V33.8883C13.7296 33.8883 13.4757 34.1105 13.8245 35.1891L14.9671 38.6479L16.6814 33.5382H16.9978L18.6824 38.6545ZM24.4567 41.1303C22.5843 41.1303 21.0612 39.7655 21.0612 38.0842C21.0612 36.4339 22.5777 35.0381 24.4567 35.0381C26.3358 35.0381 27.8522 36.4029 27.8522 38.0842C27.8522 39.7655 26.3358 41.1303 24.4567 41.1303ZM24.4567 35.5458C22.9021 35.5458 22.3627 36.9422 22.3627 38.0525C22.3627 39.1628 22.9021 40.5593 24.4567 40.5593C26.0431 40.5593 26.583 39.1628 26.583 38.0525C26.583 36.9739 26.0437 35.5458 24.4567 35.5458ZM45.2102 40.5586V40.9081H41.307V40.5586C42.4496 40.5586 42.6388 40.2731 42.6388 38.5596V35.83C42.6388 34.1157 42.441 33.8626 41.307 33.8626V33.5131H44.8291C46.5743 33.5131 47.5587 34.4019 47.5587 35.6071C47.5587 36.7807 46.575 37.7011 44.8291 37.7011H43.877V38.5899C43.877 40.2712 44.0748 40.5573 45.2089 40.5573L45.2102 40.5586ZM44.8291 34.1487H43.877V37.0998H44.8291C45.7811 37.0998 46.2255 36.4405 46.2255 35.6401C46.2255 34.8397 45.7811 34.1487 44.8291 34.1487ZM59.2043 39.3204L59.1093 39.6369C58.9511 40.2079 58.7599 40.3984 57.5546 40.3984H57.3324C56.4437 40.3984 56.2854 40.2006 56.2854 39.002V38.2088C57.6173 38.2088 57.7135 38.3361 57.7135 39.2242H58.03V36.6858H57.7135C57.7135 37.5745 57.6186 37.7011 56.2854 37.7011V35.7996H57.2059C58.4124 35.7996 58.6023 35.9974 58.7605 36.5612L58.8555 36.8776H59.141L59.0137 35.2913H54.0319V35.6078C54.9839 35.6078 55.1422 35.8056 55.1422 37.0042V39.1622C55.1422 40.2725 55.0149 40.5586 54.2534 40.5903C53.5545 40.4953 53.0469 40.0826 52.3809 39.3527L51.5878 38.4956C52.6348 38.2978 53.2064 37.6385 53.2064 36.9093C53.2064 35.9889 52.4132 35.259 50.9219 35.259H47.9391V35.5755C48.8912 35.5755 49.0494 35.7733 49.0494 36.9719V39.1299C49.0494 40.3364 48.8912 40.558 47.9391 40.558V40.8744H51.303V40.558C50.3509 40.558 50.1927 40.3358 50.1927 39.1299V38.5273H50.4781L52.3506 40.8744H59.3315L59.4264 39.2881H59.2043V39.3204ZM50.2243 38.0196V35.7667H50.9232C51.6847 35.7667 52.0335 36.306 52.0335 36.9093C52.0335 37.5126 51.684 38.0196 50.9232 38.0196H50.2243Z" fill="#00749A"/>
<path d="M62.6631 41.1303C61.9972 41.1303 61.3939 40.7809 61.1466 40.5593C61.0517 40.6543 60.9244 40.9088 60.8612 41.1303H60.5447V38.7831H60.8941C61.0214 39.8934 61.8145 40.56 62.7982 40.56C63.3376 40.56 63.7819 40.2435 63.7819 39.7358C63.7819 39.2914 63.4009 38.9427 62.7033 38.6255L61.7512 38.1811C61.0853 37.8647 60.5776 37.2924 60.5776 36.5625C60.5776 35.7384 61.3392 35.0461 62.3862 35.0461C62.9571 35.0461 63.4332 35.2373 63.718 35.4905C63.8129 35.4272 63.8762 35.2366 63.9402 35.0461H64.2567V37.0451H63.9072C63.78 36.252 63.3362 35.5854 62.4475 35.5854C61.9714 35.5854 61.5271 35.8709 61.5271 36.2843C61.5271 36.7287 61.8765 36.9502 62.7007 37.3313L63.6211 37.7757C64.4452 38.1568 64.7637 38.791 64.7637 39.2921C64.732 40.3708 63.8116 41.1316 62.6697 41.1316L62.6631 41.1303Z" fill="#00749A"/>
<path d="M67.8994 41.1303C67.2335 41.1303 66.6302 40.7809 66.383 40.5593C66.288 40.6543 66.1608 40.9088 66.0975 41.1303H65.781V38.7831H66.1304C66.2577 39.8934 67.0509 40.56 68.0346 40.56C68.5739 40.56 69.0183 40.2435 69.0183 39.7358C69.0183 39.2914 68.6372 38.9427 67.9396 38.6255L66.9876 38.1811C66.3217 37.8647 65.814 37.2924 65.814 36.5625C65.814 35.7384 66.5755 35.0461 67.6225 35.0461C68.1935 35.0461 68.6695 35.2373 68.9543 35.4905C69.0493 35.4272 69.1126 35.2366 69.1765 35.0461H69.493V37.0451H69.1435C69.0163 36.252 68.5726 35.5854 67.6838 35.5854C67.2078 35.5854 66.7634 35.8709 66.7634 36.2843C66.7634 36.7287 67.1128 36.9502 67.937 37.3313L68.8574 37.7757C69.6815 38.1568 70 38.791 70 39.2921C69.9684 40.3708 69.0479 41.1316 67.906 41.1316L67.8994 41.1303Z" fill="#00749A"/>
<path d="M31.797 21.1331C31.797 24.584 33.7796 27.5575 36.6799 28.9526L32.5684 17.609C32.091 18.7101 31.797 19.8843 31.797 21.1331ZM46.3726 20.6914C46.3726 19.6266 45.9684 18.8558 45.6381 18.3046C45.1977 17.5701 44.7942 16.9827 44.7942 16.2489C44.7942 15.4412 45.4186 14.706 46.2625 14.706H46.3726C44.8298 13.2766 42.774 12.4314 40.5046 12.4314C37.4573 12.4683 34.8147 14.0098 33.2356 16.3596H33.7862C34.7039 16.3596 36.0991 16.2495 36.0991 16.2495C36.5764 16.2126 36.6133 16.9102 36.165 16.984C36.165 16.984 35.6876 17.0499 35.174 17.0499L38.3388 26.4485L40.2475 20.7586L38.8893 17.0506L37.9715 16.9847C37.4942 16.9477 37.5674 16.2502 38.0084 16.2502C38.0084 16.2502 39.4405 16.3603 40.2844 16.3603C41.2022 16.3603 42.5973 16.2502 42.5973 16.2502C43.0747 16.2132 43.1116 16.9108 42.6633 16.9847C42.6633 16.9847 42.1859 17.0506 41.6723 17.0506L44.837 26.4129L45.7179 23.5119C46.0851 22.3001 46.3785 21.4562 46.3785 20.6848L46.3726 20.6914ZM40.6451 21.9045L38.0388 29.4669C38.8102 29.6871 39.6541 29.8342 40.498 29.8342C41.5266 29.8342 42.4806 29.6509 43.3991 29.3568C43.3621 29.3199 43.3621 29.2909 43.3331 29.2467L40.6451 21.9045ZM48.135 16.986L48.2009 17.8668C48.2009 18.7477 48.0539 19.7393 47.5402 20.9874L44.903 28.6599C47.473 27.1547 49.2347 24.3644 49.2347 21.1338C49.1978 19.6285 48.7943 18.2327 48.1336 16.9853L48.135 16.986ZM40.498 11C34.9176 11 30.3656 15.5526 30.3656 21.1324C30.3656 26.7123 34.9176 31.2655 40.498 31.2655C46.0785 31.2655 50.6305 26.7129 50.6305 21.1331C50.6305 15.5533 46.0785 11 40.498 11ZM40.498 30.8245C35.1747 30.8245 30.8429 26.4927 30.8429 21.1324C30.8429 15.8025 35.1747 11.4773 40.498 11.4773C45.8214 11.4773 50.1531 15.8091 50.1531 21.1324C50.1531 26.4927 45.8214 30.8245 40.498 30.8245Z" fill="#00749A"/>
</svg>
