<svg width="243" height="68" viewBox="0 0 243 68" fill="none" xmlns="http://www.w3.org/2000/svg">
<path d="M78.5 5.5L78.5 65.5" stroke="#DE1B37" stroke-width="2" stroke-linecap="round"/>
<path d="M60 2.96942C60 2.96942 121.705 -6.75164 153.715 17.001C185.725 40.7537 61.8743 39.9973 61.8743 39.9973" stroke="#DE1B37" stroke-width="2" stroke-linecap="round"/>
<circle cx="89.5" cy="57.5" r="6.5" stroke="#DE1B37" stroke-width="2"/>
<path d="M133.141 50.95C133.141 50.95 131.499 66.0007 139 66.0003C146.501 66 144.002 50.95 144.002 50.95" stroke="#DE1B37" stroke-width="2" stroke-linecap="round"/>
<path d="M100.999 65C100.999 65 100 50 102 50C104 50 109.5 65 111.5 65C113.5 65 112.5 49.5 112.5 49.5" stroke="#DE1B37" stroke-width="2" stroke-linecap="round"/>
<line x1="124" y1="51" x2="124" y2="65" stroke="#DE1B37" stroke-width="2" stroke-linecap="round"/>
<line x1="118" y1="50" x2="129" y2="50" stroke="#DE1B37" stroke-width="2" stroke-linecap="round"/>
<path d="M160.911 51.9899C159.499 50.6149 156.669 51.0734 152.427 51.0734C148.185 51.0734 148 58.5 152 58C156 57.5 158.5 57.7721 160 58.5C161.5 59.2279 162.797 61.6149 160.912 63.4483C159.026 65.2816 149.599 65.74 149.599 63.4483" stroke="#DE1B37" stroke-width="2" stroke-linecap="round"/>
<path d="M35 23L2 44L35 61" stroke="#DE1B37" stroke-width="2"/>
<path d="M207 23L240 43.7523L207 60.5517" stroke="#DE1B37" stroke-width="2"/>
<line x1="196.981" y1="15.1961" x2="186.981" y2="65.1961" stroke="#DE1B37" stroke-width="2"/>
</svg>
